<svg width="22" height="22" viewBox="0 0 22 22" fill="none" xmlns="http://www.w3.org/2000/svg">
<path fill-rule="evenodd" clip-rule="evenodd" d="M8.11791 11.0004H18.795C19.1077 11.0004 19.4205 10.7696 19.4651 10.4465L21.4308 3.33883C21.5648 2.83113 21.2074 2.41575 20.7607 2.41575H4.27594L4.0079 1.35421C3.87388 0.846515 3.42713 0.523438 2.98039 0.523438H1.19343C0.612669 0.523438 0.0765796 0.984977 0.0319056 1.58498C-0.0127685 2.23113 0.52332 2.78498 1.10408 2.78498H2.13159L5.52682 14.6465C5.66084 15.1542 6.06291 15.4773 6.55432 15.4773H19.1524C19.7332 15.4773 20.2693 15.0158 20.3139 14.4158C20.3586 13.7696 19.8225 13.2158 19.2418 13.2158H8.16259C7.67117 13.2158 7.26911 12.8927 7.13508 12.4311V12.385C6.91171 11.6927 7.4478 11.0004 8.11791 11.0004ZM8.34133 21.4311C9.32825 21.4311 10.1283 20.6046 10.1283 19.585C10.1283 18.5654 9.32825 17.7388 8.34133 17.7388C7.35442 17.7388 6.55437 18.5654 6.55437 19.585C6.55437 20.6046 7.35442 21.4311 8.34133 21.4311ZM18.8396 19.585C18.8396 20.6046 18.0396 21.4311 17.0527 21.4311C16.0658 21.4311 15.2657 20.6046 15.2657 19.585C15.2657 18.5654 16.0658 17.7388 17.0527 17.7388C18.0396 17.7388 18.8396 18.5654 18.8396 19.585Z" fill="#006AD0"/>
</svg>
