<svg width="24" height="24" viewBox="0 0 24 24" fill="none" xmlns="http://www.w3.org/2000/svg">
<path fill-rule="evenodd" clip-rule="evenodd" d="M22.2967 0.921875H20.9565C20.5991 0.921875 20.2864 1.24495 20.2864 1.61418V4.84495C20.2864 5.26034 19.8397 5.53726 19.5716 5.21418C17.472 2.81418 14.4788 1.56803 11.2176 1.89111C10.0561 1.98341 8.93925 2.35264 7.91175 2.90649C7.37567 3.18341 6.83958 3.50649 6.39284 3.87572C6.08012 4.10649 6.03545 4.61418 6.30349 4.93726L7.24164 5.90649C7.46501 6.13726 7.82241 6.18341 8.09045 5.9988C8.62654 5.62957 9.2073 5.30649 9.83273 5.02957C10.1008 4.93726 10.4135 4.84495 10.7262 4.75264C13.5407 4.1988 16.2211 5.35264 17.74 7.24495C18.2761 7.89111 17.874 8.30649 17.4273 8.30649H14.3001C13.9427 8.30649 13.5853 8.62957 13.5853 8.9988V10.3834C13.5853 10.7526 13.9427 11.0757 14.3001 11.0757H22.4308C22.7435 11.0757 22.9669 10.7988 22.9669 10.4757V1.61418C22.9669 1.24495 22.6541 0.921875 22.2967 0.921875ZM18.2315 17.2604C17.9634 16.9835 17.5614 16.9835 17.2933 17.2604C16.5785 17.9988 15.6851 18.5988 14.7022 18.9681C14.4342 19.0604 14.1215 19.1527 13.8088 19.245C10.9943 19.7988 8.31387 18.645 6.79496 16.7527C6.25887 16.1065 6.66093 15.6912 7.10767 15.6912H10.2348C10.5922 15.6912 10.905 15.3681 10.905 14.9988V13.6142C10.905 13.245 10.5922 12.9219 10.2348 12.9219H2.1042C1.79148 12.9219 1.52344 13.1988 1.52344 13.5219V22.3835C1.52344 22.7527 1.83615 23.0758 2.19355 23.0758H3.53376C3.89115 23.0758 4.20387 22.7527 4.20387 22.3835V19.1527C4.20387 18.7373 4.65061 18.4604 4.91865 18.7835C6.97365 21.1835 10.0115 22.4296 13.2727 22.1065C14.4342 22.0142 15.551 21.645 16.5785 21.0912C17.5614 20.5835 18.4102 19.9373 19.125 19.1988C19.393 18.9219 19.393 18.4604 19.125 18.2296L18.2315 17.2604Z" fill="#006AD0"/>
</svg>
