<svg width="28" height="28" viewBox="0 0 28 28" fill="none" xmlns="http://www.w3.org/2000/svg">
<g clip-path="url(#clip0_6167_9214)">
<path d="M14.0007 25.6654C7.55715 25.6654 2.33398 20.4422 2.33398 13.9987C2.33398 7.5552 7.55715 2.33203 14.0007 2.33203C20.4442 2.33203 25.6673 7.5552 25.6673 13.9987C25.6673 20.4422 20.4442 25.6654 14.0007 25.6654ZM14.0007 23.332C16.476 23.332 18.85 22.3487 20.6003 20.5984C22.3507 18.848 23.334 16.4741 23.334 13.9987C23.334 11.5233 22.3507 9.14937 20.6003 7.39903C18.85 5.6487 16.476 4.66536 14.0007 4.66536C11.5253 4.66536 9.15133 5.6487 7.40099 7.39903C5.65065 9.14937 4.66732 11.5233 4.66732 13.9987C4.66732 16.4741 5.65065 18.848 7.40099 20.5984C9.15133 22.3487 11.5253 23.332 14.0007 23.332ZM8.16732 10.4987L11.6673 6.41536L15.1673 10.4987H12.834V15.1654H10.5007V10.4987H8.16732ZM19.834 17.4987L16.334 21.582L12.834 17.4987H15.1673V12.832H17.5007V17.4987H19.834Z" fill="white"/>
</g>
<defs>
<clipPath id="clip0_6167_9214">
<rect width="28" height="28" fill="white"/>
</clipPath>
</defs>
</svg>
