<svg width="28" height="28" viewBox="0 0 28 28" fill="none" xmlns="http://www.w3.org/2000/svg">
<path d="M1.16602 8.34485C1.16602 6.95706 2.21068 5.83203 3.49935 5.83203H24.4994C25.788 5.83203 26.8327 6.95706 26.8327 8.34485V19.6525C26.8327 21.0403 25.788 22.1654 24.4994 22.1654H3.49935C2.21068 22.1654 1.16602 21.0403 1.16602 19.6525V8.34485Z" stroke="black" stroke-width="1.5"/>
<path d="M17.5 14C17.5 15.933 15.933 17.5 14 17.5C12.067 17.5 10.5 15.933 10.5 14C10.5 12.067 12.067 10.5 14 10.5C15.933 10.5 17.5 12.067 17.5 14Z" stroke="black" stroke-width="1.5"/>
<path d="M4.66602 18.6641H8.16602" stroke="black" stroke-width="1.5" stroke-linecap="round"/>
<path d="M19.832 9.33203H23.332" stroke="black" stroke-width="1.5" stroke-linecap="round"/>
</svg>
